<?xml version="1.0" encoding="utf-8"?><!DOCTYPE svg PUBLIC "-//W3C//DTD SVG 1.0//EN" "http://www.w3.org/TR/2001/REC-SVG-20010904/DTD/svg10.dtd"><svg version="1.0" xmlns="http://www.w3.org/2000/svg" width="372" height="372" viewBox="0 0 372 372"><g fill="#fff"><path d="M0 186 l0 -186 186 0 186 0 0 186 0 186 -186 0 -186 0 0 -186z m101 13.4 l0 -15.6 4.4 0.4 4.5 0.3 -4.2 -7.7 c-3.3 -6.3 -4.5 -7.8 -6.4 -7.8 l-2.3 0 0 23 c0 22.3 0.1 23 2 23 1.9 0 2 -0.7 2 -15.6z m29.5 -7.4 l0 -22.5 -2.2 -0.3 -2.3 -0.3 0 15.5 0 15.6 -3.6 0 c-2.3 0 -4.2 -0.7 -5.1 -1.7 -1.3 -1.8 4.6 10 7.4 14.5 0.9 1.5 2.2 2.2 3.6 2 2.2 -0.3 2.2 -0.4 2.2 -22.8z m106.6 16.5 c0.9 -3.3 3.2 -11.1 4.9 -17.2 l3.3 -11.3 3.8 0 3.8 0 2 6.8 c4.6 15.5 8.1 27.5 8.1 27.9 0 0.2 1.7 0.3 3.7 0.1 l3.7 -0.3 3.7 -19.5 c2 -10.7 3.9 -21 4.3 -22.7 0.7 -3 0.6 -3.3 -1.7 -3.3 -2.3 0 -2.6 0.5 -3.7 7.3 -0.7 3.9 -2 11.5 -2.9 16.7 l-1.6 9.5 -3.7 0.3 -3.7 0.3 -2 -6.8 c-1.1 -3.7 -2.9 -10.4 -4.1 -14.8 -3 -11.5 -3.6 -12.7 -6.2 -12.3 -2 0.3 -2.8 2.2 -6.8 16.8 l-4.5 16.5 -3.7 0.3 c-4.4 0.4 -4.1 1.1 -6.8 -16.3 -2.8 -18.2 -2.6 -17.5 -5.6 -17.5 -2 0 -2.5 0.4 -2 1.6 0.3 0.9 2.2 10.2 4.1 20.8 2 10.5 3.8 20.1 4.1 21.4 0.4 2 1 2.3 4.1 2 3.6 -0.3 3.8 -0.5 5.4 -6.3z m-161.1 -85.5 l0 -18.9 6.7 -0.3 c5.5 -0.2 6.8 -0.6 7.1 -2 0.3 -1.7 -1 -1.8 -15.7 -1.8 -15.4 0 -16.1 0.1 -16.1 2 0 1.8 0.7 2 7 2 l7 0 0 19 c0 18.3 0.1 19 2 19 1.9 0 2 -0.7 2 -19z m33 11 l0 -8 3.9 0 c3.7 0 4 0.3 9.1 8 2.9 4.4 5.9 8 6.7 8 0.8 0 -0.4 -2.2 -3.1 -5.6 -5.2 -6.3 -6.3 -11.7 -2.7 -12.9 1.1 -0.3 3.4 -2.2 5.1 -4.2 2.8 -3.1 3.1 -4.2 2.7 -7.6 -1 -7.7 -7.4 -11.7 -18.7 -11.7 l-7 0 0 21 c0 20.3 0.1 21 2 21 1.8 0 2 -0.7 2 -8z m42.9 2.7 l1.5 -4.8 12.5 0.3 12.5 0.3 1.5 4.8 c0.8 2.6 2 4.7 2.8 4.7 0.7 0 1.3 -0.3 1.3 -0.7 0 -1.2 -12.4 -30.3 -12.7 -29.9 -0.2 0.2 0.5 2.7 1.7 5.5 1.1 2.8 2 6.7 2 8.6 l0 3.5 -9 0 -9 0 0 -3.4 c0 -1.8 0.7 -5.3 1.5 -7.6 3.2 -9 0.7 -4.4 -5.2 9.6 -4.6 10.9 -5.7 14.4 -4.5 14.2 0.9 -0.2 2.2 -2.3 3.1 -5.1z m76.8 -13.7 c4.1 -10.2 7.8 -19.5 8.3 -20.7 0.7 -1.7 0.6 -2.3 -0.4 -2.3 -0.8 0 -3.6 6.2 -7.4 16.3 l-6 16.2 -3.7 0 -3.8 0 -6 -16.2 c-3.4 -9.1 -6.6 -16.3 -7.3 -16.3 -0.7 0 1.7 7.2 6.3 18.8 4.1 10.3 7.9 19.7 8.4 21 2 5.1 4.1 2 11.6 -16.8z m49.1 17.3 c-0.3 -1.5 -1.7 -1.8 -9.1 -2.1 l-8.8 -0.3 0.3 -7.7 0.3 -7.7 8.3 -0.3 c6 -0.2 8.2 -0.6 7.9 -1.5 -0.2 -0.8 -3.3 -1.3 -8.5 -1.5 l-8.2 -0.3 0 -7.4 0 -7.4 8.8 -0.3 c6.9 -0.2 8.7 -0.6 8.7 -1.8 0 -1.2 -2 -1.6 -10.7 -1.8 l-10.8 -0.3 0 21.1 0 21 11.1 0 c10 0 11 -0.2 10.7 -1.7z m40.5 1 c0.4 -0.3 0.2 -1.2 -0.4 -2 -0.8 -0.9 -3.7 -1.3 -9 -1.3 l-7.9 0 0 -19.1 c0 -17.6 -0.1 -19 -1.7 -18.7 -1.6 0.3 -1.8 2.2 -2.1 21.1 l-0.2 20.7 10.3 0 c5.7 0 10.7 -0.3 11 -0.7z m-149.2 -36.7 c-1.1 -2.5 -2.5 -4.6 -3 -4.6 -0.9 0 -4.1 5 -4.1 6.5 0 0.3 1.6 0.5 3.5 0.5 2.3 0 3.8 0.6 4.2 1.5 0.3 0.9 0.7 1.4 0.9 1.2 0.3 -0.2 -0.4 -2.5 -1.5 -5.1z m-115.1 -37.9 c-0.3 -0.2 -2 1.5 -3.9 3.7 l-3.5 4.1 3.9 -3.7 c2.2 -2.1 3.7 -3.9 3.5 -4.1z"/><path d="M109.5 121.8 c-0.3 -0.8 -0.5 -5.5 -0.3 -10.4 l0.3 -8.9 6.6 -0.3 c5.4 -0.2 7 0.1 9.2 1.8 2.4 1.9 2.7 2.8 2.7 8.4 0 8.4 -1.6 9.9 -11.1 10.4 -5.3 0.3 -7 0.1 -7.4 -1z"/></g><g fill="#0a2733"><path d="M176 364.8 c-28.6 -1.6 -61.3 -12.6 -85.5 -28.6 -9.4 -6.2 -24.6 -18.8 -25.3 -20.9 -0.9 -3 3.4 -0.9 9.1 4.3 3.4 3.1 10.9 8.7 16.6 12.6 44 29.5 99.8 37.2 149.3 20.7 20.9 -6.9 40.1 -17.5 55.4 -30.5 6.8 -5.8 8.4 -6.5 8.4 -3.6 0 2.1 -8.5 9.2 -20 16.9 -32.9 21.9 -68.1 31.4 -108 29.1z"/><path d="M175.5 350.9c-24.9-2-44.3-8.6-72.2-24.7-10.9-6.2-13.3-8-13.3-9.8 0-2.2.5-2 8 2.7 11.9 7.3 32.2 17.3 42.5 20.7 39.9 13.4 86.1 8.9 128-12.7 6-3.1 11.3-5.7 11.7-5.9.4-.2.8.5.8 1.5 0 2.1-1.4 3.1-14 9.4-29.5 14.7-61.3 21.2-91.5 18.8zM62.6 268.7c-2.8-2-1.8-6.9 1.7-8.1 2.1-.8 3.1-.6 4.4.7 2 2 1 3.5-1.2 1.7-.8-.7-2.2-1-3.1-.6-2.1.8-1.4 5 1 5.4 1.4.3 1.7 0 1.3-1.2-.5-1.1-.1-1.6 1.3-1.6 2.2 0 2.6 2 .8 3.8-1.6 1.6-4 1.5-6.2-.1zM73 265c0-4.7.2-5 2.5-5 1.4 0 2.5.5 2.5 1 0 .6-.7 1-1.5 1-.8 0-1.5.5-1.5 1 0 .6.7 1 1.5 1 .8 0 1.5.5 1.5 1 0 .6-.7 1-1.5 1-.8 0-1.5.5-1.5 1 0 .6.7 1 1.5 1 .8 0 1.5.5 1.5 1 0 .6-1.1 1-2.5 1-2.3 0-2.5-.3-2.5-5zM81.7 269.3c-1.5-1.4-.6-2.3 1.8-1.7 1.4.3 2.5.2 2.5-.4 0-.5-1.1-1.3-2.5-1.6-2.6-.7-3.5-3.9-1.4-5.1 1.4-.9 5.9.3 5.9 1.5 0 .6-1.1.8-2.5.4-1.4-.3-2.5-.3-2.5 0 0 .4 1.1 1.1 2.5 1.6 4.2 1.6 2.8 6-1.9 6-.7 0-1.6-.3-1.9-.7zM93 266c0-2.9-.4-4-1.5-4-.8 0-1.5-.4-1.5-1 0-.5 1.6-1 3.5-1 1.9 0 3.5.5 3.5 1 0 .6-.4 1-1 1-.5 0-1 1.8-1 4 0 2.2-.4 4-1 4-.5 0-1-1.8-1-4zM99 265c0-2.7.5-5 1-5 .6 0 1 2.3 1 5 0 2.8-.4 5-1 5-.5 0-1-2.2-1-5zM105.6 268.4c-3.1-3-.9-8.4 3.4-8.4 1.1 0 2.7 1.1 3.6 2.5 1.5 2.3 1.5 2.7 0 5-1.9 2.9-4.7 3.2-7 .9zm4.9-3.4c0-1.6-.6-2.6-1.8-2.8-1.9-.4-3.2 2-2.3 4.4.9 2.5 4.1 1.3 4.1-1.6zM116 265c0-5.5.9-6.2 3.3-2.7l1.6 2.2 0-2.2c.2-4.7 2.1-2.1 2.1 2.7 0 5.5-.9 6.2-3.3 2.8l-1.6-2.3 0 2.3c-.2 4.6-2.1 2-2.1-2.8zM133 267.2c0-1.5-.7-3.8-1.6-5-1.7-2.5-.3-3 1.7-.6 1.2 1.4 1.4 1.4 2.6-.2 1.9-2.6 2.8-.9.9 1.8-.9 1.2-1.6 3.3-1.6 4.5 0 1.3-.4 2.3-1 2.3-.5 0-1-1.2-1-2.8zM145 269.7c0-1.7 3.4-9.7 4.1-9.7 1.1 0 3.9 6.1 3.9 8.5 0 1.3-.3 1.3-2 .3-1.6-1-2.4-1-4 0-1.1.7-2 1.1-2 .9zM157.3 269.3c-2.4-.9-1.3-2.3 1.2-1.7 1.4.3 2.5.2 2.5-.4 0-.5-1.2-1.3-2.6-1.6-1.9-.5-2.5-1.2-2.2-2.9.4-2.7 3.9-3.4 5.8-1.2 1.2 1.4 1.1 1.6-1.3 1-1.6-.5-2.7-.3-2.7.3 0 .6 1 1.2 2.2 1.4 2.6.3 3.7 3.6 1.6 4.9-1.4 1-2.6 1-4.5.2zM165.7 269.3c-.2-.5-.2-1.4-.1-2 .1-.7.2-2.6.3-4.3.1-2.5.5-3 2.6-3 1.4 0 2.5.5 2.5 1 0 .6-.7 1-1.5 1-1.8 0-2 1.6-.2 2.4 1 .5 1 .7 0 1.2-1.8.8-1.6 2.4.3 2.4.8 0 1.2.5.9 1-.7 1.2-4.2 1.3-4.8.3zM175.3 269.3c-2.4-.9-1.3-2.3 1.2-1.7 1.4.3 2.5.2 2.5-.4 0-.5-1.2-1.3-2.6-1.6-1.9-.5-2.5-1.2-2.2-2.9.4-2.7 3.9-3.4 5.8-1.2 1.2 1.4 1 1.6-1.6 1-2.8-.6-2.8-.6-1 .9 1.1.9 2.3 1.6 2.8 1.6 1.5 0 .8 3.8-.8 4.4-1.8.7-2.3.7-4.1-.1zM184.6 267.8c-2.1-2.9-2-4.1.2-6.1 2.4-2.2 4.5-2.1 6.5.1 2.2 2.4 2.1 4.5-.1 6.5-2.5 2.3-4.8 2.1-6.6-.5zm5.9-1.8c.8-2.5-.1-4-2.5-4-2.2 0-3.4 2.8-1.9 4.6 1.6 2 3.7 1.7 4.4-.6zM195 264.9c0-4.9.1-5 2.8-4.7 2.5.3 2.7.6 2.8 5.1.1 4.5-.8 6.1-2 3.5-.5-1-.7-1-1.2 0-1.3 2.7-2.4.9-2.4-3.9zM204 265c0-2.7.5-5 1-5 .6 0 1 2.3 1 5 0 2.8-.4 5-1 5-.5 0-1-2.2-1-5zM208 269.6c0-.2.9-2.6 2-5.2 1.3-2.8 2.4-4.4 3-3.8 1.8 1.8 4 8.3 3 8.9-.6.3-1 .1-1-.4 0-.6-1.1-1.1-2.5-1.1-1.4 0-2.5.5-2.5 1 0 .6-.4 1-1 1-.5 0-1-.2-1-.4zM224 265c0-4.6.2-5 2.3-5 3 0 4.7 1.8 4.7 5 0 3.2-1.7 5-4.7 5-2.1 0-2.3-.4-2.3-5zm4.5 0c0-1.3-.6-2.5-1.2-2.7-.9-.3-1.3.6-1.3 2.7 0 2.1.4 3 1.3 2.8.6-.3 1.2-1.5 1.2-2.8zM234 265c0-4.7.2-5 2.5-5 1.4 0 2.5.5 2.5 1 0 .6-.7 1-1.5 1-.8 0-1.5.5-1.5 1 0 .6.7 1 1.5 1 .8 0 1.5.5 1.5 1 0 .6-.7 1-1.5 1-.8 0-1.5.5-1.5 1 0 .6.7 1 1.5 1 .8 0 1.5.5 1.5 1 0 .6-1.1 1-2.5 1-2.3 0-2.5-.3-2.5-5zM248.7 269.3c-.4-.3-.7-2.1-.7-4 0-1.8-.4-3.3-1-3.3-.5 0-1-.4-1-1 0-.5 1.6-1 3.5-1 1.9 0 3.5.5 3.5 1 0 .6-.4 1-1 1-.5 0-1 1.8-1 4 0 3.8-.8 4.9-2.3 3.3zM255 264.9c0-4.9.1-5 2.8-4.7 2.5.3 2.7.6 2.8 5.1.1 4.5-.8 6.1-2 3.5-.5-1-.7-1-1.2 0-1.3 2.7-2.4.9-2.4-3.9zM263 269.6c0-1.5 4.1-9.6 4.8-9.6 1.3 0 4.6 9 3.7 9.8-.4.4-1 .1-1.2-.5-.6-1.5-3.9-1.7-4.8-.3-.6 1-2.5 1.4-2.5.6zM274 268.1c0-3.8 1.3-8.1 2.4-8.1.7 0 1.7 1.2 2.3 2.8l1 2.7 1.1-2.7c1.2-2.9 3-3.7 3.7-1.5 2 6.6.9 12.2-1.3 6l-1-2.8-.7 2.8c-.8 3.2-2.5 3.5-3.2.7-.3-1.1-.9-2-1.4-2-.5 0-.9.9-.9 2 0 1.1-.4 2-1 2-.5 0-1-.8-1-1.9zM288 265c0-2.7.5-5 1-5 .6 0 1 2.3 1 5 0 2.8-.4 5-1 5-.5 0-1-2.2-1-5zM295 266c0-2.9-.4-4-1.5-4-.8 0-1.5-.4-1.5-1 0-.5 1.9-1 4.3-1 3.7.1 4 .2 2.5 1.4-1.2.8-1.8 2.7-1.8 5 0 2-.4 3.6-1 3.6-.5 0-1-1.8-1-4zM301.7 269.3c-.4-.3-.7-2.6-.7-5 0-4.1.1-4.3 3-4.3 1.7 0 3 .5 3 1 0 .6-.9 1-2 1-1.1 0-2 .5-2 1 0 .6.9 1 2 1 1.1 0 2 .5 2 1 0 .6-.9 1-2 1-1.1 0-2 .5-2 1 0 .6.9 1 2 1 1.1 0 2 .5 2 1 0 1.1-4.3 1.4-5.3.3zM309.9 268.4c-1.2-1.5-1-1.6 2.1-1 3.3.7 3.4.6 1.5-.8-4.5-3.4-4.7-3.7-3.4-5.2 1.5-1.9 4.3-1.8 6 .2 1.1 1.3.9 1.4-1.4.9-1.6-.4-2.7-.3-2.7.3 0 .5 1.1 1.3 2.5 1.6 4.3 1.1 2.8 5.6-2 5.6-.7 0-1.9-.7-2.6-1.6zM155 249.4c-16-2.8-20.7-4.6-23.6-8.9-4.5-6.9 4.5-13.1 21.6-15.1 3.3-.4 6-.9 6-1.3 0-.3-1.6-1.7-3.5-3-4.6-3.1-8.9-8.6-11.7-14.8-3.4-7.4-3.2-19.8.5-27.8 13.8-29.7 55.2-28.1 66.3 2.5 2.2 6.2 2.1 18.2-.2 24-2.6 6.7-6.6 12.1-11.9 16l-4.7 3.5 7.9 1.1c14.9 2 21.6 5.5 21.6 11.2 0 5.2-4 8.3-14.3 11-5.3 1.4-48 2.6-54 1.6zm48.4-3.9c17.1-3 22.5-9 12.2-13.5-7.4-3.1-24.2-5.6-26.3-3.8-2.4 1.9-1.3 2.5 5.8 3.2 8.7.8 13.9 2.8 13.9 5.4 0 3.8-5.2 5.7-18.7 6.8-7 .6-8.3.5-8.3-.8 0-1.1 1.8-1.7 7.5-2.1 9.1-.8 16.9-2.7 15.8-3.8-.7-.7-16.8-3.9-19.9-3.9-.7 0-2.5 1.1-4 2.5-3.4 3.2-6.1 3.2-9.4 0-2.6-2.4-2.8-2.5-10.8-1.5-4.5.6-9.5 1.5-11 2.1-2.7 1.1-2.7 1.1-.4 2 1.2.5 6.2 1.4 11 2 10.7 1.4 11.2 1.5 11.2 3 0 1.4-13.1.7-20.3-1.2-4.9-1.2-8.3-4.1-7.2-5.9 1.3-2.1 7.2-4 14.4-4.6 7.1-.7 8.2-1.3 5.8-3.2-2.2-1.9-21.6 1.2-27.8 4.4-8.2 4.2-1.9 10.4 13.1 12.9 10.9 1.9 42.7 1.9 53.4 0zm-17.8-17.2c3.9-3.8 9.7-9 12.7-11.6 9.4-8.1 13.4-19.5 10.7-30.8-1.4-5.7-6.2-14-10.1-17.5-13.5-11.7-34-10.7-46 2.4-6.2 6.6-8.3 12.2-8.4 21.8 0 7.3.3 8.7 3.5 15 2.7 5.2 4.7 7.7 8.5 10.4 2.7 1.9 8.1 6.5 12 10.2 3.8 3.7 7.6 6.8 8.4 6.8.8 0 4.7-3 8.7-6.7z"/><path d="M175.7 243.4c-.8-.8.1-2.4 1.4-2.4.5 0 .9.7.9 1.5 0 1.5-1.2 2-2.3.9zM168.1 220.9c-14.5-4.2-23.5-20.1-19.7-35 7.1-27.5 43.6-30.9 55.4-5.1 5 11.1 1.6 26.6-7.6 34.2-7.3 6-19 8.5-28.1 5.9zm22.7-5.8c8-5.1 12.3-12.7 12.4-21.6.1-7.8-1.8-12.8-6.7-18.3-5.4-6-11.5-8.7-19.5-8.6-7.7 0-12.6 2-18.1 7.1-8.8 8.2-10.8 20.2-5.3 31 5.2 10.2 13.1 14.6 25.1 14 6-.3 8-.9 12.1-3.6z"/><path d="M168 209.2c0-2.6.7-4.5 2-5.7 1.8-1.6 3-8.5 1.5-8.5-.3 0-3.8.9-7.7 2-4.1 1.1-7.6 1.6-8.1 1.1-.5-.5-.7-2.1-.5-3.6.2-2.3 1.7-3.6 8.5-7.4 7.9-4.4 8.3-4.8 8.3-8.1 0-3.6 3.2-10 4.9-10 1.8 0 4.1 4.4 4.7 9.2.6 4.6.8 4.7 7.5 8.3 7.7 4 9.9 5.9 9.9 8.3-.1 4-1.3 4.3-8.8 2.2-3.9-1.1-7.6-2-8.2-2-2 0-1 5.9 1.5 8.8 2.3 2.8 3.3 7.1 1.9 8.5-.4.3-2.3-.1-4.4-.9-3.4-1.4-4.2-1.4-7.5 0-5.2 2.2-5.5 2.1-5.5-2.2zm12-1.3c3.5 1.2 3.7.6 1-2.9-1.9-2.4-2.9-11.8-1.4-13.2.3-.4 3.7.2 7.5 1.3 11.7 3.3 11.7 2.1 0-4.3-8.2-4.4-9.1-5.6-9.1-12.4 0-1.3-.4-2.4-1-2.4-1 0-1.8 2.5-2.2 7.5-.3 2.5-1.3 3.5-7.8 7.2-4.1 2.4-7.9 4.4-8.5 4.7-.5.2-.7.7-.3 1 .3.4 3.9-.1 7.9-1.2 4.1-1.1 7.7-1.8 8.1-1.6 1.7 1.1.8 10.6-1.2 13.1-2.8 3.5-2.5 4.4 1 3.2 2.1-.8 3.9-.8 6 0zM94 192l0-26 5.3 0c5.9 0 3.9-2.5 16.2 20.3 3.2 5.9 6.2 10.7 6.7 10.7.4 0 .8-7 .8-15.6l0-15.5 5.3.3 5.2.3 0 25.5 0 25.5-5.5 0-5.4 0-8.2-15c-4.5-8.2-8.7-15.1-9.3-15.3-.8-.3-1.1 4.3-1.1 15.2l0 15.6-5 0-5 0 0-26zM224.5 215.8c-.2-1.3-1.9-9.9-3.6-19.3-1.7-9.3-3.7-19.7-4.5-23-.7-3.3-1.4-6.3-1.4-6.7 0-.5 2.7-.8 6-.8 6.9 0 6-1.9 9.1 18 1.1 7.4 2.5 14.2 2.9 15 1.1 2 1.1 1.9 6.4-17.2l4.1-15.3 5.3-.3c6.2-.4 5.6-1.4 10.8 17.8 4 15 4.9 17.4 5.8 15 .5-1.4 5.6-30.9 5.6-32.4 0-.3 2.7-.6 6-.6 3.3 0 6 .3 6 .6 0 .4-1.8 10.2-4.1 21.8-2.2 11.6-4.3 22.9-4.7 25.1l-.8 4-6.6.3-6.7.3-1-3.8c-3.3-11.9-8.9-30.5-9.5-31-.3-.3-.8-.4-1.1-.1-.3.2-2.6 8.1-5.3 17.4l-4.8 16.9-6.7.3c-6.2.3-6.7.1-7.2-2zM69 126l0-19-7 0-7 0 0-5 0-5 19.1 0 19 0-.3 4.7-.3 4.8-6.7.3-6.8.3 0 18.9 0 19-5 0-5 0 0-19zM102 121l0-24 10 0c14.1 0 19.5 2.8 21.8 11.1 1.9 7.3-.7 14-7.1 17.9l-2.8 1.7 6.6 8.1c3.6 4.5 6.5 8.3 6.5 8.7 0 .3-2.9.5-6.4.5l-6.3 0-5.3-8c-2.9-4.4-5.7-8-6.2-8-.5 0-.9 1.2-.8 2.8.1 1.5.2 5.1.1 8l-.1 5.2-5 0-5 0 0-24zm21.1-3.6c5-4.5.3-12.8-7-12.2l-3.6.3-.3 5.9c-.4 8.2 0 9 4.9 8.3 2.2-.3 4.9-1.3 6-2.3zM142 144.8c0-.2 4.4-10.9 9.8-23.8l9.8-23.5 4.2-.3c4.1-.3 4.3-.2 5.8 3.5.9 2.1 4.5 10.7 8.1 19.2 3.5 8.5 7.3 17.6 8.4 20.3l1.9 4.8-5.8 0-5.8 0-1.5-4.7-1.5-4.8-9.5-.3-9.5-.3-1.5 4.8-1.5 4.8-5.7.3c-3.1.2-5.7.1-5.7 0zm30-19.2c0-1-5.3-14.2-6-14.9-.4-.5-1.8 2.2-3 6-1.3 3.7-2.5 7.4-2.8 8.1-.3.9 1.2 1.2 5.7 1.2 3.4 0 6.1-.2 6.1-.4zM214.1 142.8c-.5-1.3-4.7-11.9-9.5-23.7-4.7-11.7-8.6-21.5-8.6-21.7 0-.2 2.4-.4 5.3-.4l5.4 0 6 16.2c3.3 9 6.4 16.2 6.9 16.1.4-.1 3.4-7.4 6.7-16.2l5.9-16.1 5.5 0c4.8 0 5.5.2 5 1.7-.3 1-4.6 11.7-9.5 23.8l-8.9 22-4.7.3c-4 .3-4.7 0-5.5-2zM253 121l0-24.1 13.8.3 13.7.3 0 4.5 0 4.5-8.7.3-8.8.3 0 4.4 0 4.4 8.3.3 8.2.3.3 4.2.3 4.2-8.3.3-8.3.3-.3 4.7-.3 4.7 8.8.3 8.8.3.3 4.8.3 4.7-14 0-14.1 0 0-24zM294.2 121.3l.3-23.8 4.8-.3 4.7-.3 0 19 0 19.1 7.9 0c8.9 0 10.4.9 9.9 6.2l-.3 3.3-13.8.3-13.7.3.2-23.8z"/></g><g fill="#5994bb"><path d="M175.3 361.3c1.5-.2 3.7-.2 5 0 1.2.2 0 .4-2.8.4-2.7 0-3.8-.2-2.2-.4zM192.8 361.3c1.8-.2 4.5-.2 6 0 1.5.2 0 .4-3.3.4-3.3 0-4.5-.2-2.7-.4zM187.8 351.3c1.2-.2 3.2-.2 4.5 0 1.2.2.2.4-2.3.4-2.5 0-3.5-.2-2.2-.4zM200.8 350.3c1.2-.2 3.2-.2 4.5 0 1.2.2.2.4-2.3.4-2.5 0-3.5-.2-2.2-.4zM178.3 347.3c1.5-.2 3.7-.2 5 0 1.2.2 0 .4-2.8.4-2.7 0-3.8-.2-2.2-.4zM194.3 347.3c1.5-.2 3.9-.2 5.5 0 1.5.2.2.4-2.8.4-3 0-4.3-.2-2.7-.4zM263 347.5c0-.2 1.8-1.4 4-2.5 2.2-1.1 4-1.8 4-1.5 0 .2-1.8 1.4-4 2.5-2.2 1.1-4 1.8-4 1.5zM104.8 344.9c-2.1-1.1-3.8-2.2-3.8-2.4 0-.3 1.8.4 4 1.5 2.2 1.1 4 2.3 4 2.5 0 .7 0 .7-4.2-1.6zM99.8 339c-2-1.1-3.9-2.4-4.3-2.9-.3-.6 1.5.2 4 1.5 2.5 1.4 4.5 2.8 4.5 3 0 .6-.1.5-4.2-1.6z"/><path d="M85.4 332.8 c-12.1 -8.5 -34.3 -30.9 -42.1 -42.4 -14 -20.5 -23.6 -43.3 -29.4 -69.3 -2.6 -11.4 -2.9 -13.9 -1.8 -16 1.2 -2.6 1.2 -2.5 2.1 1.9 3.2 16.9 9.7 34.5 17.8 48.6 9 15.6 23.5 32.1 39.5 45 8.8 7.2 28.8 20.3 38.3 25.2 4.5 2.4 8.2 4.5 8.2 4.8 0 0.2 -2.7 -0.9 -6 -2.6 -5.9 -3 -8.1 -2.8 -3.7 0.4 2.1 1.5 2 1.5 -1.1 0.1 -1.8 -0.9 -3 -2 -2.7 -2.5 0.3 -0.6 0 -0.7 -0.7 -0.5 -2.7 1.1 -30.3 -17.8 -45 -30.7 -3.6 -3.2 -9.9 -9.8 -13.9 -14.6 -10.1 -12 -10.7 -12.5 -6.9 -5.7 7.9 14.3 18.3 27.6 31.6 40.5 4.8 4.7 8.7 8.9 8.6 9.3 -0.1 0.5 0.1 0.6 0.6 0.3 0.4 -0.2 2.1 0.6 3.8 2 l2.9 2.5 -2.8 -1.7 c-1.5 -0.9 -3 -1.4 -3.3 -1.2 -0.4 0.5 6.6 6.1 13.6 11 1.4 0.9 2.2 1.7 1.9 1.7 -0.4 0.1 -4.6 -2.7 -9.5 -6.1z m-10.6 -11.2 c-1.3 -1.3 -2.5 -2.2 -2.7 -2 -0.6 0.5 3 4.4 4.1 4.4 0.5 0 -0.2 -1.1 -1.4 -2.4z m20.6 -3 c-1 -0.8 -2.1 -1.2 -2.4 -0.9 -0.3 0.2 0.4 1.1 1.4 1.9 1.1 0.7 2.2 1.2 2.5 0.9 0.2 -0.3 -0.4 -1.2 -1.5 -1.9z"/><path d="M116.8 333.9c-3.2-1.6-5.8-3.2-5.8-3.4 0-.5 11.9 5.2 12.9 6.1 1.3 1.2-2.2-.1-7.1-2.7zM282 336.7c0-.3 3.8-3.3 8.5-6.7 4.7-3.4 8.3-6.6 7.9-7.1-.3-.5-2.4.5-4.7 2.3-9.4 7.1-7.8 5.5 6.6-7 4.8-4.1 11.8-11.2 15.5-15.6 7.8-9.4 13.2-16.2 13.2-16.8 0-.2-4.6 4.1-10.2 9.5-5.7 5.5-14 12.7-18.5 16.1-7.5 5.6-27.5 18.6-28.7 18.6-.3 0-.3-.7 0-1.5.8-2.1.2-1.9-6.6 1.5-11.3 5.7-7.4 2.9 5.3-3.8 28.5-15 54-37.7 69.5-61.6 6.2-9.5 12.6-29 15.7-47.8.4-2.5 1.1-3.8 2.2-3.8 1.1 0 1.4.6.9 2.4-.3 1.4-.2 2.7.3 3 .5.3 1.2-1 1.5-2.9 1-5.2 3-4.5 2.3.8-1.2 8.5-5.9 22-13.2 38.3-12.8 28.6-21.7 41.8-40.4 60.4-6.4 6.3-15.1 13.9-19.3 16.8-4.3 2.9-7.8 5.1-7.8 4.9zm-4.5-11.7c.8-1.3.2-1.3-2.9.1-1.4.7-2.3 1.6-2 2 .6 1 3.9-.5 4.9-2.1zM123 333.5c-2.5-1.3-4-2.4-3.5-2.4.6 0 3 1.1 5.5 2.4 2.5 1.3 4.1 2.4 3.5 2.4-.5 0-3-1.1-5.5-2.4zM93.8 266c.2-2.2.6-4 .8-4 .2 0 .4 1.8.4 4 0 2.2-.3 4-.8 4-.4 0-.6-1.8-.4-4zM99.3 265c0-3 .2-4.3.4-2.7.2 1.5.2 3.9 0 5.5-.2 1.5-.4.2-.4-2.8zM110.5 265c0-3 .4-4.5.9-4 1.3 1.3 1.3 7 .1 8-.6.5-1-.9-1-4zM116.8 267.5c.5-2.7 1.6-3.2 2.8-1.3.4.7.3.8-.4.4-.8-.5-1.2 0-1.2 1.3 0 1.2-.4 2.1-.9 2.1-.4 0-.6-1.1-.3-2.5zM133 267.5c0-1.4.2-2.5.4-2.5.2 0 .6 1.1.8 2.5.3 1.4.1 2.5-.3 2.5-.5 0-.9-1.1-.9-2.5zM158 268.9c0-.5-.4-.7-1-.4-.5.3-1 .1-1-.5 0-.7.7-.9 1.6-.6.9.3 2 .6 2.5.6.5 0 .9.5.9 1 0 .6-.7 1-1.5 1-.8 0-1.5-.5-1.5-1.1zM195.1 264.8c.1-5.5.5-5 1.1 1.5.2 2 0 3.7-.4 3.7-.4 0-.7-2.4-.7-5.2zM204.5 265c-.1-2.8.3-5 .7-5 .4 0 .8 2.3.8 5 0 2.8-.3 5-.7 5-.5 0-.8-2.3-.8-5zM250.3 266c0-2.5.2-3.5.4-2.2.2 1.2.2 3.2 0 4.5-.2 1.2-.4.2-.4-2.3zM255.1 267.8c0-1.3.3-1.7.6-1 .2.6.9 1 1.4.7.5-.4.6.1.3.9-.9 2.4-2.4 1.9-2.3-.6zM289.2 267c0-1.9.2-2.7.5-1.7.2.9.2 2.5 0 3.5-.3.9-.5.1-.5-1.8zM248.3 265.5c0-2.2.2-3 .4-1.7.2 1.2.2 3 0 4-.3.9-.5-.1-.4-2.3zM301.3 264.5c0-2.7.2-3.8.4-2.2.2 1.5.2 3.7 0 5-.2 1.2-.4 0-.4-2.8zM224.4 266.5c.4-2.4 1.6-3 1.6-.7 0 1.2-.4 2.2-.9 2.2-.5 0-.8-.7-.7-1.5zM283 266.4c0-1.2-.3-1.5-.8-.7-.5.7-1.3.9-2.1.3-.8-.4-2.1-.5-3-.2-1.4.5-1.4.4-.2-1.2.8-.9 1.7-1.3 2-.8.3.5 1.4.8 2.4.6 1.8-.2 3.5 2.1 2.3 3.3-.3.4-.6-.2-.6-1.3zM210.7 264.8c-.5-2-.5-2.1.7-.6 1.1 1.5 1.3 1.5 2.3 0 1-1.5 1.1-1.4.6.6-.3 1.2-1.1 2.2-1.8 2.2-.7 0-1.5-1-1.8-2.2zM119.4 263.9c-.4-.8-.3-.9.4-.5.8.5 1.2 0 1.2-1.3 0-1.2.4-2.1.9-2.1 1.1 0 .3 3.8-1 4.5-.4.3-1.1 0-1.5-.6zM258 264c1.2-.8 1.3-1.2.2-1.9-1.1-.7-1.1-.9.1-1.4.8-.3 1.8-.3 2.1 0 .8.9-1.3 4.3-2.7 4.3-.8 0-.6-.4.3-1zM156.5 262c-.7-1.1-.8-1.1 2.3-1.4 2.7-.3 2.8 0 .3 1.4-1.3.7-2.2.7-2.6 0zM175.7 247.3c1.8-.2 5-.2 7 0 2.1.2.7.4-3.2.4-3.8 0-5.5-.2-3.8-.4zM200 215.5c1.9-1.9 3.6-3.5 3.9-3.5.3 0-1 1.6-2.9 3.5-1.9 1.9-3.6 3.5-3.9 3.5-.3 0 1-1.6 2.9-3.5zM133.4 192c0-14 .2-19.8.3-12.7.2 7 .2 18.4 0 25.5-.1 7-.3 1.2-.3-12.8zM155.9 213.3l-3.4-3.8 3.8 3.4c3.4 3.3 4.2 4.1 3.4 4.1-.2 0-1.9-1.7-3.8-3.7zM169.7 204c1.2-1.4 2.3-4.1 2.6-6l.4-3.5.1 3.6c.2 2.7-.4 4.1-2.5 6l-2.8 2.4 2.2-2.5zM155.4 197.6c-.3-.8-.4-2.5-.1-3.8.3-1.8.5-1.6.6.9 0 1.7.7 3.4 1.4 3.6.9.4.9.6-.1.6-.7.1-1.5-.5-1.8-1.3zM121.6 197.3c.7-.4 1.4-1.9 1.7-3.3.4-2.2.5-2.1.4.4-.1 1.7-.9 3.1-1.7 3.3-1 .3-1.1.2-.4-.4zM141.3 193c0-3 .2-4.3.4-2.7.2 1.5.2 3.9 0 5.5-.2 1.5-.4.2-.4-2.8zM181.2 180c0-1.9.2-2.7.5-1.7.2.9.2 2.5 0 3.5-.3.9-.5.1-.5-1.8zM172.3 178.5c0-2.2.2-3 .4-1.7.2 1.2.2 3 0 4-.3.9-.5-.1-.4-2.3zM178.2 178c0-1.9.2-2.7.5-1.7.2.9.2 2.5 0 3.5-.3.9-.5.1-.5-1.8zM155 176.7c0-.2 1.5-1.6 3.3-3.3l3.2-2.9-2.9 3.3c-2.8 3-3.6 3.7-3.6 2.9zM362.5 159.8c-.2-1.3-1.4-6.9-2.5-12.4-6.9-34.7-27.7-71.2-53.5-93.6-23.9-20.8-57.6-36.2-84.2-38.5-8-.7-10.4-1.6-8.7-3.3 2.4-2.4 30.1 3.2 45.4 9.2 14.9 5.8 27.8 13.3 42.1 24.4 25.4 19.8 44.3 46.6 55.4 78.4 2 5.8 4.1 12.5 4.6 15 3 14.8 4.1 23 2.8 23-.5 0-1.1-1-1.4-2.2z"/><path d="M351.6 149.6 c-3.6 -13.5 -10.2 -29.5 -16.1 -39.3 -2.6 -4.3 -5.5 -9 -6.4 -10.5 -0.9 -1.6 -2.5 -2.8 -3.6 -2.8 -1.3 -0.1 -3.9 -2.7 -7.5 -7.7 -6.7 -9.3 -23 -26 -32.6 -33.6 -21.2 -16.6 -42.7 -26.4 -72.4 -33.1 -16.9 -3.8 -30.2 -5 -47.5 -4.3 -23.4 1 -31.5 2.8 -50.5 11.2 -32.7 14.4 -68.7 46.4 -86.8 77.2 -4.2 7 -9.5 21.8 -12.2 33.6 -1.2 5.3 -2.7 9.7 -3.2 9.7 -4.7 0 3 -30.1 13.1 -51.3 13.2 -27.7 39 -52.7 69.6 -67.7 37.6 -18.3 85.7 -23.7 124 -14 7.5 1.9 31 11.6 39.4 16.2 10.3 5.6 31 19.7 40.4 27.5 9.5 7.9 22.7 22.6 31.8 35.4 9.5 13.3 20.5 37 23.4 50.3 0.7 3.3 1.6 7.3 2 8.7 0.4 1.6 0.1 2.9 -0.7 3.7 -1.1 0.9 -1.9 -0.8 -4.2 -9.2z m-280.1 -98.9 c1.1 -1.1 -0.9 0.3 -4.5 3.2 -3.6 2.9 -7.4 6.5 -8.4 7.9 -1.7 2.3 6.7 -5 12.9 -11.1z"/><path d="m78.5 125.5 0-19 6.7-.3 6.7-.3.4-4.5.4-4.4-.1 4.7-.1 4.8-6.7.3-6.8.3-.3 18.7-.3 18.7.1-19zM102.4 121c0-13.5.2-19 .3-12.2.2 6.7.2 17.7 0 24.5-.1 6.7-.3 1.2-.3-12.3zM280.2 140.8l-.2-4.7-8.2-.4-8.3-.3 8.3-.2c9.2-.2 9.6 0 8.9 6.4-.3 3.7-.4 3.7-.5-.8zM294.4 121.5c0-13.2.2-18.5.3-11.7.2 6.8.2 17.6 0 24-.1 6.4-.3.9-.3-12.3zM321.3 140.5c0-2.2.2-3 .4-1.7.2 1.2.2 3 0 4-.3.9-.5-.1-.4-2.3zM308.8 135.3c2.3-.2 5.9-.2 8 0 2 .2.1.4-4.3.4-4.4 0-6.1-.2-3.7-.4zM159.7 126.3c-.3-.5 1.6-.7 4.1-.5 8 .5 9 .9 2.5 1.1-3.4 0-6.4-.2-6.6-.6zM253.4 111.5c0-8.2.2-11.5.3-7.2.2 4.3.2 11 0 15-.1 4-.3.5-.3-7.8zM279.3 121c0-2.5.2-3.5.4-2.2.2 1.2.2 3.2 0 4.5-.2 1.2-.4.2-.4-2.3zM57.7 106.3c1.8-.2 5-.2 7 0 2.1.2.7.4-3.2.4-3.8 0-5.5-.2-3.8-.4zM271.2 106.3l8.7-.4.4-3.9.4-4-.1 4.2-.1 4.3-9 .1-9 0 8.7-.3z"/></g></svg>